Coordinates
version=1
nRows=29
nColumns=22
inDegrees=yes

Units are S.I. units (second, meters, Newtons, ...)
If the header above contains a line with 'inDegrees', this indicates whether rotational values are in degrees (yes) or radians (no).

endheader
time	pelvis_tilt	pelvis_list	pelvis_rotation	pelvis_tx	pelvis_ty	pelvis_tz	hip_flexion_r	hip_adduction_r	hip_rotation_r	knee_angle_r	ankle_angle_r	subtalar_angle_r	hip_flexion_l	hip_adduction_l	hip_rotation_l	knee_angle_l	ankle_angle_l	subtalar_angle_l	lumbar_extension	lumbar_bending	lumbar_rotation
      5.30000000	     -0.09157728	     -5.50163091	     -0.74654746	      0.36431116	      1.01411132	     -0.11545689	     10.54613966	     10.01753512	     -4.40697657	    -12.63856285	      6.23110779	      4.66046202	      7.21611326	     -8.09415194	     -8.11259903	    -51.21556041	      6.48583340	      2.24888039	    -10.40277397	      7.30882296	      5.69022774
      5.31000000	      0.01379232	     -5.57577307	     -0.66012751	      0.36731085	      1.01466464	     -0.11448831	     10.01445421	     10.15158162	     -4.40130730	    -12.23463711	      6.49007169	      5.00838460	      7.64362594	     -8.49248737	     -8.47679510	    -51.62182854	      7.19173739	      2.28673925	    -10.52211505	      7.35483262	      5.92081124
      5.32000000	      0.15321271	     -5.59802214	     -0.56584661	      0.37023105	      1.01532660	     -0.11365629	      9.43057280	     10.22364374	     -4.31786770	    -11.79764029	      6.78791732	      5.57789751	      7.99050269	     -8.77421636	     -8.75195601	    -51.83416945	      7.86428252	      2.32219676	    -10.67851564	      7.35184158	      6.11072959
      5.33000000	      0.24466416	     -5.63008502	     -0.48383602	      0.37304832	      1.01589932	     -0.11290368	      8.92938807	     10.30032492	     -4.27954304	    -11.40256838	      7.03364614	      5.93140863	      8.36734435	     -9.03257825	     -8.98216761	    -51.91337143	      8.52305423	      2.27156222	    -10.77750944	      7.36901080	      6.32753024
      5.34000000	      0.36314939	     -5.62729216	     -0.39219117	      0.37578623	      1.01654407	     -0.11225763	      8.38990384	     10.33484621	     -4.18523604	    -10.98270308	      7.29104214	      6.46381651	      8.67819953	     -9.19596875	     -9.12512726	    -51.82290774	      9.08590229	      2.17648649	    -10.90788989	      7.35080982	      6.51263073
      5.35000000	      0.45197015	     -5.61934031	     -0.30731841	      0.37844371	      1.01711451	     -0.11167751	      7.91266928	     10.35833220	     -4.13826570	    -10.60617402	      7.52632907	      6.90355278	      8.99456819	     -9.32810492	     -9.24346400	    -51.60535394	      9.61404417	      2.05542136	    -11.00116228	      7.33340367	      6.67580526
      5.36000000	      0.52556235	     -5.61179646	     -0.22462874	      0.38102799	      1.01762913	     -0.11116984	      7.46721472	     10.37784572	     -4.10550696	    -10.24640952	      7.74070582	      7.30083289	      9.30226312	     -9.43160166	     -9.32119795	    -51.27002376	     10.09995734	      1.93231851	    -11.07540459	      7.32379336	      6.83169747
      5.37000000	      0.57287724	     -5.61072194	     -0.15176701	      0.38353162	      1.01804022	     -0.11068873	      7.08129295	     10.40257127	     -4.11669723	     -9.93188003	      7.93047226	      7.58248029	      9.61723982	     -9.53413152	     -9.39754475	    -50.84012154	     10.60039833	      1.83880203	    -11.12107659	      7.32268180	      6.97062959
      5.38000000	      0.63191879	     -5.60862404	     -0.08001766	      0.38597224	      1.01843639	     -0.11025898	      6.68827377	     10.42484698	     -4.10794191	     -9.61863425	      8.10264732	      7.93423976	      9.89020692	     -9.61074090	     -9.43270002	    -50.30229215	     11.05065635	      1.73567544	    -11.18215452	      7.32239539	      7.10529012
      5.39000000	      0.67765652	     -5.60439925	     -0.01198578	      0.38832641	      1.01875501	     -0.10986221	      6.32847543	     10.44555158	     -4.09254435	     -9.32851285	      8.26005838	      8.23038892	     10.15972727	     -9.67478700	     -9.44866575	    -49.68606431	     11.48402194	      1.64511201	    -11.23224765	      7.32017342	      7.22238591
      5.40000000	      0.66678279	     -5.59540682	      0.05037864	      0.39058454	      1.01891371	     -0.10950001	      6.06678179	     10.46159902	     -4.09119874	     -9.09295891	      8.38761490	      8.30617087	     10.47979309	     -9.72775608	     -9.45120367	    -49.01237595	     11.93048930	      1.60435706	    -11.21842522	      7.31559873	      7.30651603
      5.41000000	      0.67454215	     -5.60322747	      0.09315289	      0.39276928	      1.01904097	     -0.10913025	      5.80363524	     10.49882681	     -4.08626194	     -8.88105297	      8.49235957	      8.39437122	     10.75776803	     -9.79854996	     -9.45538929	    -48.28073035	     12.37282864	      1.54339953	    -11.23684183	      7.32396945	      7.39530244
      5.42000000	      0.69625649	     -5.61745363	      0.13080772	      0.39490975	      1.01914305	     -0.10879917	      5.54395456	     10.54281571	     -4.07258339	     -8.69584841	      8.56959212	      8.46051620	     10.99826708	     -9.87448308	     -9.45943004	    -47.49227519	     12.77702957	      1.45836372	    -11.27035903	      7.34054206	      7.48281686
      5.43000000	      0.71842179	     -5.63263463	      0.15509445	      0.39697778	      1.01919994	     -0.10848331	      5.30537406	     10.58983816	     -4.05455364	     -8.53880614	      8.61921557	      8.46810285	     11.22309089	     -9.94575833	     -9.44976235	    -46.66680525	     13.13821076	      1.35417561	    -11.31175074	      7.35438130	      7.56007053
      5.44000000	      0.79333723	     -5.65444714	      0.16329351	      0.39902326	      1.01930850	     -0.10818138	      5.01726820	     10.64760711	     -4.02424371	     -8.39021009	      8.63185577	      8.34618998	     11.36405871	    -10.02446245	     -9.45135762	    -45.79849579	     13.43345577	      1.11706199	    -11.41601824	      7.37053607	      7.65161944
      5.45000000	      0.77816289	     -5.66262028	      0.17795280	      0.40093926	      1.01923716	     -0.10794983	      4.88128796	     10.68460409	     -4.00427005	     -8.32541853	      8.63018149	      8.24062574	     11.61308769	    -10.06412145	     -9.37638618	    -44.93052320	     13.73403528	      1.03765977	    -11.41977496	      7.37602951	      7.67909225
      5.46000000	      0.80326657	     -5.67373320	      0.18079274	      0.40284690	      1.01921142	     -0.10773889	      4.70787713	     10.72883827	     -3.98828822	     -8.26683159	      8.59745465	      7.85262521	     11.79665984	    -10.10352415	     -9.30058244	    -44.03696033	     13.97857639	      0.79391488	    -11.46892479	      7.37889664	      7.72056180
      5.47000000	      0.79479820	     -5.67357588	      0.18477082	      0.40465517	      1.01912304	     -0.10758216	      4.61044431	     10.75631242	     -3.97927105	     -8.26782827	      8.54889216	      7.51922877	     12.01871296	    -10.11168396	     -9.16958861	    -43.14601970	     14.21060794	      0.63620729	    -11.48515929	      7.36950275	      7.72556401
      5.48000000	      0.78393816	     -5.66273245	      0.18845572	      0.40641834	      1.01903403	     -0.10748235	      4.53928651	     10.76874422	     -3.98031323	     -8.30510742	      8.49145839	      7.15992992	     12.23364255	    -10.09311974	     -9.00477687	    -42.24715191	     14.42462007	      0.49820913	    -11.49878242	      7.34747244	      7.70812970
      5.49000000	      0.77196189	     -5.64007221	      0.19294823	      0.40811830	      1.01895203	     -0.10743154	      4.49643957	     10.76611323	     -3.98714673	     -8.38246424	      8.41542086	      6.75964924	     12.44257357	    -10.04579854	     -8.80301494	    -41.34662508	     14.61602160	      0.37644144	    -11.51548588	      7.30994219	      7.66540742
      5.50000000	      0.76159215	     -5.59705086	      0.20414723	      0.40976468	      1.01889004	     -0.10745264	      4.47423606	     10.73711930	     -4.00718913	     -8.49188557	      8.33473444	      6.33263476	     12.64078148	     -9.95713153	     -8.56168697	    -40.44211791	     14.77578020	      0.28472764	    -11.53645742	      7.25034286	      7.59650538
      5.51000000	      0.75477136	     -5.53570195	      0.22086734	      0.41135968	      1.01885292	     -0.10752651	      4.46914581	     10.68640720	     -4.03196669	     -8.63167078	      8.23670728	      5.86243542	     12.82513349	     -9.83338626	     -8.29249848	    -39.53627809	     14.90677792	      0.22177668	    -11.56482059	      7.16806462	      7.49976824
      5.52000000	      0.74967577	     -5.46707801	      0.23849901	      0.41292032	      1.01883514	     -0.10764569	      4.47361433	     10.62720037	     -4.05372066	     -8.78511281	      8.10310893	      5.29827044	     12.99517313	     -9.69144423	     -8.01326873	    -38.63242726	     15.03319082	      0.18232654	    -11.59556761	      7.07681552	      7.39575751
      5.53000000	      0.75514234	     -5.36309172	      0.27000362	      0.41441774	      1.01886401	     -0.10784250	      4.48863371	     10.52468179	     -4.08809593	     -8.97212468	      7.99374372	      4.77238614	     13.14115624	     -9.48931341	     -7.69705911	    -37.72331085	     15.09919642	      0.19295980	    -11.64326995	      6.94507565	      7.26014279
      5.54000000	      0.77027979	     -5.22523858	      0.30785085	      0.41584838	      1.01893385	     -0.10809095	      4.51658722	     10.38021365	     -4.11722173	     -9.19791641	      7.91081970	      4.32866539	     13.26499230	     -9.23856215	     -7.37314171	    -36.81808972	     15.09812353	      0.23853448	    -11.71134604	      6.77411822	      7.08004980
      5.55000000	      0.79266468	     -5.09635241	      0.34698056	      0.41729356	      1.01902726	     -0.10839064	      4.52192549	     10.24550691	     -4.14917820	     -9.39375730	      7.78931983	      3.68557514	     13.36374206	     -8.98743535	     -7.04411753	    -35.92190266	     15.13767893	      0.30874380	    -11.78021381	      6.61533065	      6.93240259
      5.56000000	      0.82703632	     -4.94166037	      0.38850828	      0.41869660	      1.01916509	     -0.10873040	      4.52712375	     10.07797126	     -4.17171102	     -9.61310100	      7.70378587	      3.17393317	     13.43571790	     -8.69737260	     -6.71002906	    -35.03725980	     15.12681740	      0.40352822	    -11.86639485	      6.42474768	      6.74876579
      5.57000000	      0.87312140	     -4.77344314	      0.43249266	      0.42010119	      1.01934281	     -0.10911570	      4.51520849	      9.89180544	     -4.20150062	     -9.82630139	      7.64173828	      2.70167232	     13.47790136	     -8.38165944	     -6.36816477	    -34.16794551	     15.09298752	      0.51299813	    -11.96268322	      6.21851821	      6.55830497
      5.58000000	      0.92757017	     -4.59664624	      0.47644533	      0.42151991	      1.01955366	     -0.10955943	      4.48748838	      9.69172722	     -4.23564273	    -10.03052144	      7.59875151	      2.27534075	     13.49299370	     -8.04642162	     -6.02282805	    -33.31813935	     15.04054404	      0.62923331	    -12.06204236	      6.00645933	      6.36732448
